/* XPM */
static char *result[] = {
/* columns rows colors chars-per-pixel */
"64 64 62 1 ",
"  c #02BF1B",
". c #0CBF1B",
"X c #2BBE1F",
"o c #32BF1E",
"O c #3BAC2E",
"+ c #2FBA23",
"@ c #35B727",
"# c #3AB727",
"$ c #35BC22",
"% c #3AB826",
"& c #36B12B",
"* c #3DB32B",
"= c #3BA930",
"- c #40AB2F",
"; c #46BC24",
": c #4CBA27",
"> c #42B12C",
", c #4EB729",
"< c #46BC2D",
"1 c #4BB92A",
"2 c #41B830",
"3 c #06C119",
"4 c #0EC01A",
"5 c #1AC217",
"6 c #14C01A",
"7 c #1CC11A",
"8 c #23C417",
"9 c #2CC516",
"0 c #25C219",
"q c #2BC318",
"w c #34C517",
"e c #3BC716",
"r c #3FC815",
"t c #31C418",
"y c #33CF19",
"u c #3BCF1A",
"i c #31D116",
"p c #39D217",
"a c #36D019",
"s c #3AD118",
"d c #39C723",
"f c #55CF0F",
"g c #5FD407",
"h c #57D00F",
"j c #5CD10D",
"k c #43C717",
"l c #43C914",
"z c #4DCC12",
"x c #47C41C",
"c c #49C31E",
"v c #51CD11",
"b c #54C41F",
"n c #67D607",
"m c #69D706",
"M c #6FDA02",
"N c #64D509",
"B c #6DD708",
"V c #71DB01",
"C c #78DE00",
"Z c #78E000",
"A c #49C021",
"S c #55C222",
/* pixels */
"O*OOOOOOOOOO&00000q0000q000000q000q0q9$-O>OOO&O@000000q000000qqq",
"O>::,::::::,;llllklllllllllllllllllle9$***1::,,Alllllllllllllleq",
"O:VVMMMMMVVVVMVVVMMVVVVVVVVVVMVMVVMVh4q0q9NVMMVMVMVVVMVMVVVVVVv0",
"O:VMMVMMMgjjNMVMMMMMVMjjjNVVMMMMVMMVnzzveqNVMMMMMVMVMMMMVMMMVVz0",
"O:MMMMMMMe37eVVVVMMMVMq7 zVMVVCVVVVVVVVCv.NVMMVMMMMVVVMMMMMMMVv0",
"O:MVMVVMMNhwwvvvjVMMjztejNVNzvvvvvvzjVMVNhMMMMMMMMVjzvfMMMMMMVzX",
"=:MMMMMMMVVw0X0.zVVVe.0lVMVj 0777706zVMMVVVMMVMMMMVz.X8MVMMMMVz8",
"&:MMMMMMMVmtwMvqelllNmNnMMVmmNNNNmj0vVMMMMMMMMMVVMMmnl9rzVMMMVb&",
"O:MMMMMMMVMtlCj0q000nVVVMMMVVVVVMCn7zVMMMMMVMVMMMMMVVk00lMMMMVS=",
"XxMMVNegVMMwqevnNmz0ezmVMMMMMMMMMMmNmMVMVVzllzMMMVMMMNNtlVVMMVSO",
"8lVMMf hVMMew0vVMVvt0tmVMMVMMMMMMMVVVMMVMme0qlMMMMMMMVMtlMMMMMSO",
"0lVgtwXjVMMmmVjqt0jVlwMVVVMMMVVVVVVVMVVVvq9tmMVVMVMMMVMw90vVMMSO",
"qlVh0eegVMMVMmh0eejVltNNNmVVMmNnnnnnnNmVfellMVNmVMMMMMmwtehVmMS&",
"0lCg.vCVVMMVN606vCVCl6707zVMVz 077770 zVMVVMVN zVMMVMVVtlVMMMZS=",
"0lVj7vVNjmVMmzvzvjhhvzvz0vVMVjzvvvvvvzjMMMMMVmzgVMMMMghtlVMMMMS&",
"qlVj.vVz NVMVVVCg 00mCCm4zVMMVVVVVVVVCCMVMMMMMVVMMMVCl77lVVVVCS=",
"0lCj.vCNhMVMMMMVNjlqzfMmhNVVMMMMMMMVNzzznVMMVMMMMMVjzwtjhvzvvh;O",
"0lVj.vVMVVMMMMVVVCz00qmVVVMMMVVMMMMVj306hVMMMMMMMMVz60wVn78707@O",
"0lVmNmVMMMMMMVNejVnnetMMMmVjrllllMVMmNhqelnVMMMMVMVmnNNMmnnmh8%O",
"0lVVMVMMmMMMMVh.zMMVlemVMMZj7999wMMMMCj9t9nVMMMMMMMVVVVMVVMVj8%-",
"0kMMMMVvqnVMMVhXqt90NMMMMMVj6hVMMMVVMMMMMMMMMMVMVMMMMMMMMVh0t9$O",
"0kVMMMVz0gmMMMgellllmVMMMMVNejmNNVMNmMMMVMMMMMnnNmVMMMMMMVNrr9%-",
"qlMVMMVz779mMMMMVVVMMMMMMMMMVz3qwVm7vZVMMMMMVN706zVMMMMMMVMVj8%-",
"0lMVMVVjzzfMMMMMMVMVMMMVMMVVVjzwtjv0ljNVMMMMVnzvzjVMMMMVMhNCj8%O",
"0lMMMVVVVVVVMMVVVMMMVMMMVMMVMVCr7770q6zVMMMVMVVVVVMMMVVVN.zCj5#O",
"$xVMVmjnMMMMMVmjNMMMMMMMMMMMMMMhzvvzl0vVMVMMMMMMMMMMMNhVn0vCj0%-",
"=,MMVh jVMMMMVh zCMMMMVMMMMMMMMVVVVCj zVMMMMMMMMMMVCVe0MN zCh3%O",
"+xVMVj7jVMVMVVj0lzNVMMMMMMVMMMMMMMMMmhnVMMMVMMVMVNzvvwwMMhhzhN:O",
"0lMMVg7jVMMMMVj0q.hVMMVVVMMMMMMVMMMMVVVMMVMMVMMMVh7000wMMCh3zZSO",
"0lVNle.jVMMMMVmmf0gCMMlzVMMVMVMMMMMVVMMMMMMMMMMMVj.fmNNlzCh6zZS=",
"0lVj.t9gVMMMVMMVgXhMMMqeVMMMMMMMVMMmmMMMMMMMMMMVVj0NVVVteVjqvVS&",
"ttwwXzMMMVVVVMMVh.ttmM9lVMMMMVVMMVn9fCMVVVMMMVMMMMMVMMMMMMMmMVS=",
"9t0wlfVMVNNNmMMVgreqjntlVMVMMnNMMVN8lmnNNmMMMVMMMMVMMMMNmMMVmnb=",
"9t0fVVMMVl00lVVMMVz6806rVMMMVz3NMVgX0990q.NVMMVVMMMMMVM0wVMVj7#O",
"qw5zVMVMVlqqehNVMVjvzvzhMMMMVjzmVVmvkqt9lvmVMMjNMMVMMMBvhVMVN0o#",
"qtXvVMMMVk0we.vVMMVVVVVVMMMMVVVMMMMCg0w0jCMMVN.vVVMMMVVVVVMVj.99",
"tt0vVMMMMk0t90zVMMMMMMMVMMVMMMMMMMMVj5t0jVMMVN0rvNVMVvzMMMMVmjkq",
"9t0vVMMVVk099XzVMMMVVMMMVMMMMMMVMMMVjXt7jVMMVN9q.zVMVe0MVMMMMVv0",
"*%0zVMMVMl9NNNmMVMMMMMVmrhVMMMMMVMMVmNnNmVzlMMnh0vVMVltMVMMMMVv0",
"O*0zVMMMMlqVVVVMMMMMMMVn4vVMVMMMMMMMVVVMMMl0MMZj.zVVVltVVVVMMVv0",
"-*7zVMVMMnnMMVNejVMMMMlr9elkrjVMMMMMMMMVMMltMMMmNmMMVe0llejVMVv0",
"O;9vVMMMMVVMMVj zMMMVmw0t9qq7jVMVMVMMVMmMMltMMMMVVMMMzqwt0vVmMz0",
"0kMMVVMMMMMMMVjqwtjVVmw0q0qq8jVMMMMMMVhqtt09mVMMMMMMVMmMMmMVh9w9",
"0lVMNmMMMMMMMVj0t8hmMMlkllllrNVMMVMMMVgrlrkzMVMMMMMMMMMVMVMVhXto",
"0lCj zVVCMMMMVh70005NVMVMVMVVMMMMMMMMMVVVVVVMMMVVVVVVMMMMMMVg8%-",
"0lVj0zNjjmMMMVNzvvzvmMMMMMMMMMMVMVVMVMMMMMMMMMMnjjjnVVMMMMVVh8%O",
"qeVj.0.00NCVVMVVVVVVVVVVVVMMMVMMMMVMMMVMMMMMMMVj 0.NVVVMMMMVj0%-",
"qlVNjjNl0zzzhVMMMVMMhzvvzgVMMMMMMMMMMMMMMMVMMMVmjv0kvzvMVMMVj0w$",
"0lVVVVCv000.lMMMMMMVl7006zVMMMMMMMVMVVMVVVVVVVMMVj0q07qMMMMVh799",
"0lVMMMMnNnNnmMMMMVhrttNmNnMMMMVMMMMMMVjelelllzVMVmNNNNnMMMMVMmz0",
"0lMMMMMVVVVVVMVMMVv0trMVVMMMMMmMVMMMMVj0tq9t7rVMMVVVVVVMMMMMVVv0",
"0lVMMMMMMMMMMVMMMMMMMMMMVMVVVhqnVMVMMMMMMMMmqlVMMMMMMMMVVMMVjqtq",
"qlMMMMMVMNNMMVMMMMmnnnnnnnmNmz0nVMMMMMMMMVVMlzVMMMMMVMMMMVMVjX90",
"0lVMVMMMMlqMMMVMMVz377777777707NVMMMVMMVMMMMVMMMMMMMMMMMMMMVj0t9",
"+xMMMMMMMkqMMMMMMVjzvvzvvvvvvvzmVMMMMMMMMMMMMMMMVMMMMMMVMMMVj0tt",
"O,VMMMMVVltMVMVMMVVVVZMZVVVVVVVVMVMMVVVVVVVVVVVMMMMVVMMMVMMVj0t9",
"=:VMMMMNNetMVMMVMMMMMMMMMMMVMMMMMMMVmjhjjjjjjNMMMMMMMMMMMMMVj0t9",
"&:VMMMZz XtmMMMMMMZMMMMMMMMMMMVMMMMVj 0.67673eVMMVMMMMMMMMMVh699",
"=:MMMMBNhghMMMMMMMMMMMMMVMMMMMVMMMMMmhgjjjjjhNMMMMMMMMMMVMMMmhc@",
"&:MMmMBZMVVVMMMMMMMBMMMMMMMMMMVVVVMVVCVVVVCVVVMMMMMMMMMMMMMMVCS=",
"=:ZVBBZBVVVVVMVMZBZBVVVVVVVMVhrlllllllllkkukllrhZMVVMMMMMZMZVVSO",
"=:BmBBBBBBBBBBBMBBBBBBmMmMmMMz6q0q0q000qqqq00q6zMmMmMMMMMmmmmMSO",
"22A2AAA2A2<<<<<<A2A22Aupuppppuyyyyyyyid<22A22AaappppssssasssA<<*",
"22OOOO=*=*=*OOOOOOO*=Oq0q0qqqqqtqq9t99$==2OOO&9qq0qqqq0qq0q0+=**"
};
